<?xml version="1.0" encoding="utf-8"?>
<!-- Generator: Adobe Illustrator 16.0.0, SVG Export Plug-In . SVG Version: 6.00 Build 0)  -->
<!DOCTYPE svg PUBLIC "-//W3C//DTD SVG 1.0//EN" "http://www.w3.org/TR/2001/REC-SVG-20010904/DTD/svg10.dtd">
<svg version="1.0"
	 id="NexT" xmlns:dc="http://purl.org/dc/elements/1.1/" xmlns:cc="http://creativecommons.org/ns#" xmlns:rdf="http://www.w3.org/1999/02/22-rdf-syntax-ns#" xmlns:svg="http://www.w3.org/2000/svg"
	 xmlns="http://www.w3.org/2000/svg" xmlns:xlink="http://www.w3.org/1999/xlink" x="0px" y="0px" width="512px" height="512px"
	 viewBox="0 0 512 512" enable-background="new 0 0 512 512" xml:space="preserve">
<path fill="#42910F" d="M460,35.5H52c-6.627,0-12,5.373-12,12v408c0,6.627,5.373,12,12,12h408c6.627,0,12-5.373,12-12v-408
	C472,40.873,466.627,35.5,460,35.5z M241.228,320.496c-0.51,1.512-1.304,4.952-2.387,10.318c-1.083,5.368-3.001,10.636-5.755,15.806
	c-2.754,5.171-6.559,8.979-11.407,11.421c-4.852,2.444-10.893,3.478-18.117,3.104c-4.308-0.166-8.949-1.018-13.921-2.56
	c-4.975-1.541-10.003-3.729-15.086-6.563l-18.651-10.788c-8.882-4.512-16.93-6.655-24.136-6.433
	c-4.02,0.226-7.566,1.034-10.646,2.424c-3.079,1.393-5.819,3.62-8.223,6.685c-2.402,3.067-4.368,5.77-5.89,8.109
	c-1.524,2.342-2.741,4.522-3.647,6.544c-0.91,2.024-2.178,3.607-3.809,4.754c-1.629,1.149-3.042,1.541-4.23,1.178
	c-1.191-0.36-1.817-1.563-1.881-3.605c-0.063-2.041,0.055-4.961,0.354-8.761l0.763-8.995c0.397-4.998,1.245-10.209,2.534-15.634
	c1.289-5.423,3.357-11.418,6.208-17.988c2.848-6.568,5.972-12.173,9.366-16.816c3.396-4.641,9.192-11.201,17.396-19.681
	c8.199-8.479,13.787-14.061,16.758-16.747c2.968-2.682,9.693-8.451,20.175-17.299c10.479-8.849,17.482-15.745,21.007-20.692
	c3.522-4.942,5.055-10.4,4.594-16.369c-0.771-6.953-4.416-12.575-10.93-16.86c-6.517-4.286-14.423-6.382-23.716-6.296
	c-5.965,0.087-10.897,0.962-14.801,2.627c-3.903,1.667-6.866,3.479-8.887,5.435c-2.021,1.957-3.877,4.83-5.562,8.622
	c-1.688,3.791-2.06,7.417-1.12,10.877c0.803,3.565,2.755,6.098,5.855,7.596c3.098,1.5,4.726,2.546,4.885,3.139
	c0.154,0.595-0.783,1.621-2.819,3.079c-2.986,2.186-5.957,3.699-8.914,4.538c-2.959,0.84-5.966,1.209-9.021,1.103
	c-3.054-0.003-5.984-0.537-8.791-1.597c-2.811-1.059-5.928-3.206-9.358-6.441c-3.431-3.232-5.202-8.886-5.313-16.959
	c-0.212-6.872,1.021-12.916,3.706-18.136c2.681-5.217,7.133-10.466,13.354-15.742c6.218-5.278,12.344-9.105,18.378-11.487
	c6.031-2.379,11.947-4.057,17.745-5.036c5.798-0.977,11.327-1.596,16.594-1.86c11.922-0.369,22.47,0.8,31.644,3.507
	c9.171,2.706,17.742,7.279,25.714,13.711c7.969,6.434,12.997,14.206,15.084,23.312c2.084,9.11,1.607,18.297-1.437,27.563
	c-2.664,8.061-6.311,14.652-10.939,19.781c-4.629,5.131-12.996,11.671-25.099,19.621c-12.106,7.953-21.305,14.444-27.603,19.474
	c-6.296,5.031-15.011,12.653-26.143,22.868c-11.132,10.216-18.358,17.818-21.67,22.806c-3.316,4.988-5.175,7.688-5.578,8.098
	c5.681-4.76,10.668-8.405,14.961-10.932s8.781-4.31,13.468-5.352c4.684-1.042,9.18-1.53,13.484-1.464
	c5.279,0.236,9.323,0.907,12.135,2.017c2.809,1.108,7.314,3.239,13.52,6.386c6.202,3.15,11.931,5.49,17.182,7.021
	c5.251,1.533,10.02,2.083,14.31,1.651c4.845-0.35,8.625-1.487,11.342-3.418c2.715-1.928,4.769-3.962,6.16-6.099
	c1.391-2.137,2.598-3.493,3.62-4.074c1.023-0.578,1.956-0.708,2.798-0.386c0.844,0.324,1.284,1.133,1.324,2.426
	C242.046,317.829,241.733,318.984,241.228,320.496z M420.228,314.496c-0.51,1.512-1.304,4.952-2.387,10.318
	c-1.083,5.368-3.001,10.636-5.755,15.806c-2.754,5.171-6.559,8.979-11.407,11.421c-4.852,2.444-10.893,3.478-18.117,3.104
	c-4.308-0.166-8.949-1.018-13.921-2.56c-4.975-1.541-10.003-3.729-15.086-6.563l-18.651-10.788
	c-8.882-4.512-16.93-6.655-24.136-6.433c-4.02,0.226-7.566,1.034-10.646,2.424c-3.079,1.393-5.819,3.62-8.223,6.685
	c-2.402,3.067-4.368,5.77-5.89,8.109c-1.524,2.342-2.741,4.522-3.647,6.544c-0.91,2.024-2.178,3.607-3.809,4.754
	c-1.629,1.149-3.042,1.541-4.23,1.178c-1.191-0.36-1.817-1.563-1.881-3.605c-0.063-2.041,0.055-4.961,0.354-8.761l0.763-8.995
	c0.397-4.998,1.245-10.209,2.534-15.634c1.289-5.423,3.357-11.418,6.208-17.988c2.848-6.568,5.972-12.173,9.366-16.816
	c3.396-4.641,9.192-11.201,17.396-19.681c8.199-8.479,13.787-14.061,16.758-16.747c2.968-2.682,9.693-8.451,20.175-17.299
	c10.479-8.849,17.482-15.745,21.007-20.692c3.522-4.942,5.055-10.4,4.594-16.369c-0.771-6.953-4.416-12.575-10.93-16.86
	c-6.517-4.286-14.423-6.382-23.716-6.296c-5.965,0.087-10.897,0.962-14.801,2.627c-3.903,1.667-6.866,3.479-8.887,5.435
	c-2.021,1.957-3.877,4.83-5.562,8.622c-1.688,3.791-2.06,7.417-1.12,10.877c0.803,3.565,2.755,6.098,5.855,7.596
	c3.098,1.5,4.726,2.546,4.885,3.139c0.154,0.595-0.783,1.621-2.819,3.079c-2.986,2.186-5.957,3.699-8.914,4.538
	c-2.959,0.84-5.966,1.209-9.021,1.103c-3.054-0.003-5.984-0.537-8.791-1.597c-2.811-1.059-5.928-3.206-9.358-6.441
	c-3.431-3.232-5.202-8.886-5.313-16.959c-0.212-6.872,1.021-12.916,3.706-18.136c2.681-5.217,7.133-10.466,13.354-15.742
	c6.218-5.278,12.344-9.105,18.378-11.487c6.031-2.379,11.947-4.057,17.745-5.036c5.798-0.977,11.327-1.596,16.594-1.86
	c11.922-0.369,22.47,0.8,31.644,3.507c9.171,2.706,17.742,7.279,25.714,13.711c7.969,6.434,12.997,14.206,15.084,23.312
	c2.084,9.11,1.607,18.297-1.437,27.563c-2.664,8.061-6.311,14.652-10.939,19.781c-4.629,5.131-12.996,11.671-25.099,19.621
	c-12.106,7.953-21.305,14.444-27.603,19.474c-6.296,5.031-15.011,12.653-26.143,22.868c-11.132,10.216-18.358,17.818-21.67,22.806
	c-3.316,4.988-5.175,7.688-5.578,8.098c5.681-4.76,10.668-8.405,14.961-10.932s8.781-4.31,13.468-5.352
	c4.684-1.042,9.18-1.53,13.484-1.464c5.279,0.236,9.323,0.907,12.135,2.017c2.809,1.108,7.314,3.239,13.52,6.386
	c6.202,3.15,11.931,5.49,17.182,7.021c5.251,1.533,10.02,2.083,14.31,1.651c4.845-0.35,8.625-1.487,11.342-3.418
	c2.715-1.928,4.769-3.962,6.16-6.099c1.391-2.137,2.598-3.493,3.62-4.074c1.023-0.578,1.956-0.708,2.798-0.386
	c0.844,0.324,1.284,1.133,1.324,2.426C421.046,311.829,420.733,312.984,420.228,314.496z"/>
</svg>
